<svg width="25" height="25" viewBox="0 0 25 25" fill="none" xmlns="http://www.w3.org/2000/svg">
<path d="M12.4792 8.22911C13.0161 8.22911 13.4514 7.79383 13.4514 7.25689C13.4514 6.71995 13.0161 6.28467 12.4792 6.28467C11.9422 6.28467 11.507 6.71995 11.507 7.25689C11.507 7.79383 11.9422 8.22911 12.4792 8.22911Z" fill="white"/>
<path d="M14.5833 17.3612H13.1945V9.79175H11.1111C10.9269 9.79175 10.7503 9.86491 10.6201 9.99515C10.4898 10.1254 10.4167 10.302 10.4167 10.4862C10.4167 10.6704 10.4898 10.847 10.6201 10.9772C10.7503 11.1075 10.9269 11.1806 11.1111 11.1806H11.8056V17.3612H10.4167C10.2325 17.3612 10.0559 17.4344 9.92563 17.5646C9.79539 17.6948 9.72223 17.8715 9.72223 18.0556C9.72223 18.2398 9.79539 18.4164 9.92563 18.5467C10.0559 18.6769 10.2325 18.7501 10.4167 18.7501H14.5833C14.7675 18.7501 14.9442 18.6769 15.0744 18.5467C15.2046 18.4164 15.2778 18.2398 15.2778 18.0556C15.2778 17.8715 15.2046 17.6948 15.0744 17.5646C14.9442 17.4344 14.7675 17.3612 14.5833 17.3612Z" fill="white"/>
<path d="M12.5 23.6111C10.3024 23.6111 8.15418 22.9595 6.32697 21.7386C4.49976 20.5177 3.07562 18.7824 2.23464 16.7521C1.39367 14.7218 1.17363 12.4877 1.60236 10.3324C2.03108 8.17702 3.08931 6.19721 4.64323 4.64329C6.19715 3.08937 8.17696 2.03114 10.3323 1.60242C12.4876 1.17369 14.7217 1.39373 16.752 2.2347C18.7823 3.07568 20.5176 4.49982 21.7385 6.32703C22.9594 8.15424 23.6111 10.3025 23.6111 12.5C23.6111 15.4469 22.4405 18.273 20.3567 20.3568C18.273 22.4405 15.4468 23.6111 12.5 23.6111ZM12.5 2.77781C10.5771 2.77781 8.6974 3.34801 7.09859 4.4163C5.49978 5.48459 4.25366 7.003 3.51781 8.7795C2.78196 10.556 2.58942 12.5108 2.96456 14.3967C3.33969 16.2827 4.26564 18.015 5.62532 19.3747C6.985 20.7344 8.71733 21.6603 10.6033 22.0354C12.4892 22.4106 14.444 22.218 16.2205 21.4822C17.997 20.7463 19.5154 19.5002 20.5837 17.9014C21.652 16.3026 22.2222 14.4229 22.2222 12.5C22.2222 9.92154 21.1979 7.44865 19.3746 5.62538C17.5513 3.80211 15.0785 2.77781 12.5 2.77781Z" fill="white"/>
</svg>
