<svg width="65" height="56" viewBox="0 0 65 56" fill="none" xmlns="http://www.w3.org/2000/svg">
<path d="M34.8093 40.4193C35.1166 39.0366 35.5775 36.271 35.8848 34.8883C35.8848 34.7859 35.936 34.6834 35.936 34.581C35.9872 34.3249 36.0896 34.1713 36.1921 34.0177C36.2433 33.9153 36.3457 33.8128 36.4481 33.7104C36.5506 33.6592 36.7042 33.6592 36.8578 33.608C37.37 33.5056 37.9333 33.4031 38.4454 33.3007C38.9063 33.1983 39.4184 33.1471 39.8794 33.0446C40.2379 32.9422 40.6476 32.891 40.9549 32.7886C41.5182 34.5298 42.901 35.8101 44.6422 36.1175C46.3835 36.2199 48.0223 35.1956 48.9441 33.6592C49.2514 33.8129 49.6099 33.9665 49.9684 34.1201C50.4293 34.2738 50.8902 34.4786 51.2999 34.6835C51.8121 34.8883 52.273 35.0932 52.7852 35.298C52.9388 35.3492 53.0412 35.4004 53.1436 35.5029C53.2461 35.6053 53.2973 35.7077 53.3485 35.8614C53.3997 36.015 53.4509 36.2199 53.4509 36.4759V36.7832C53.4509 38.2172 53.2973 40.9827 53.2973 42.4164V42.4676C53.2973 42.8261 52.99 43.0821 52.6315 43.0309C52.4779 43.0309 52.3242 42.9797 52.1706 42.9797H52.0681L35.8848 41.2384H35.7824C35.6287 41.2384 35.4751 41.1872 35.3215 41.1872C34.963 41.136 34.7069 40.8287 34.8093 40.4191L34.8093 40.4193Z" fill="#3268DA"/>
<path d="M51.0947 26.5915C51.0435 27.0525 51.0435 27.5646 50.9923 27.8719C50.9923 28.0255 50.9411 28.128 50.9411 28.2304V28.2816V28.3328C50.7874 29.101 50.3265 29.6644 49.7632 29.9716C49.5071 30.535 49.1999 31.0471 48.8414 31.508C48.4316 31.9689 47.9707 32.3787 47.4074 32.6859C45.8198 33.5566 44.0785 33.3517 42.6958 32.1738C42.1836 31.7641 41.7739 31.2008 41.4667 30.5862C41.313 30.3301 41.2106 30.0229 41.1082 29.6644C41.057 29.5107 41.057 29.3571 41.0057 29.2547V29.101L40.8009 28.8962C40.7497 28.8449 40.7497 28.7937 40.6985 28.7937C40.2375 28.2304 40.1863 27.667 40.1351 27.2573V27.0525V26.5404C40.1351 26.3867 40.1351 26.2843 40.1864 26.1307C40.1864 26.0282 40.2888 25.2088 40.2888 25.2088V25.1064C40.4424 23.7748 40.8521 22.3409 41.8764 21.3678C41.9788 21.2654 42.1324 21.163 42.2861 21.0605C42.4909 20.1387 42.5934 19.3193 42.6446 18.6023C43.1567 19.1144 43.464 19.729 43.6176 20.3947C43.72 20.3435 43.8737 20.3435 43.9761 20.2923C44.8467 19.729 45.7173 19.3193 46.5879 19.0632C46.4343 19.4217 46.2294 19.7802 46.0758 20.1899C46.1782 20.1899 46.2294 20.1899 46.3319 20.2411L47.1 20.3947C47.6122 20.4972 48.1755 20.702 48.6364 20.958C49.251 21.2653 49.8143 21.675 50.224 22.1872C50.941 23.0578 51.197 24.1333 51.197 25.2599C51.197 25.3112 51.197 25.6697 51.1458 26.0794C51.1458 26.0794 51.1458 26.3354 51.0946 26.5915L51.0947 26.5915ZM46.127 23.9285C45.8197 25.2088 46.5367 26.4891 46.6903 27.0012C46.383 26.8988 45.7685 26.4891 45.1539 25.8746C44.7954 25.5161 44.4369 25.2088 43.8224 24.3894C43.1054 24.7478 42.3372 24.9527 41.5178 25.0039C41.5178 25.1063 41.5178 25.1575 41.4666 25.26C41.4153 25.6697 41.3641 26.0794 41.3641 26.1306V26.2331V26.4891V26.8476V27.0012V27.1037C41.3641 27.4622 41.4153 27.7182 41.6202 27.8718L41.7226 27.9743L41.7738 28.0767C41.825 28.1279 41.9275 28.2303 41.9787 28.3328L42.1323 28.5376L42.1835 28.7937C42.1835 28.8449 42.2348 28.9473 42.2348 28.9985C42.2348 29.101 42.286 29.2034 42.286 29.2546C42.3884 29.5619 42.4396 29.7667 42.542 30.0228C42.7469 30.4837 43.1053 30.8934 43.4639 31.2519C44.4881 32.1225 45.666 32.2249 46.8439 31.6104C47.2536 31.4055 47.5609 31.1495 47.8682 30.791C48.1755 30.4325 48.4315 30.0228 48.6364 29.5106L48.79 29.1009L49.1997 28.8961C49.5582 28.6912 49.7118 28.3327 49.8143 28.0254V27.923C49.8143 27.8205 49.8655 27.5133 49.9167 26.4378C49.9167 26.1817 49.9679 25.9768 49.9679 25.8232C48.4315 25.6696 47.1 24.9526 46.1269 23.9283L46.127 23.9285Z" fill="#3268DA"/>
<path d="M28.9707 12.4054C29.0731 11.586 29.7901 11.0227 30.6095 11.125L63.6421 14.6588C64.4615 14.7612 65.0248 15.4782 64.9224 16.2976L60.8766 53.9904C60.7742 54.8099 60.0572 55.3732 59.2378 55.2708L26.2052 51.7371C25.3858 51.6346 24.8225 50.9177 24.9249 50.0983L28.9707 12.4054ZM57.957 45.8985L60.9274 18.1921L32.5042 15.1193L29.5339 42.8257L57.957 45.8985Z" fill="#3268DA"/>
<path d="M13.7094 32.1221H13.607C13.4534 32.1221 13.2997 32.1733 13.1461 32.1733C12.7876 32.2245 12.4803 31.9173 12.4803 31.61V31.5588C12.4803 30.1248 12.2754 27.3593 12.2754 25.9256V25.6184C12.2754 25.3623 12.3266 25.1574 12.3779 25.0038C12.4291 24.9014 12.4803 24.7477 12.5827 24.6453C12.6851 24.5941 12.7876 24.5429 12.9412 24.4405C13.4021 24.1844 13.9142 23.9795 14.4264 23.7747C14.8873 23.5698 15.2971 23.4162 15.7579 23.2113C16.1164 23.0577 16.4749 22.9041 16.7822 22.7504C17.704 24.2868 19.3429 25.2599 21.1354 25.1574C22.8766 24.8501 24.2594 23.5186 24.7715 21.7773C24.8739 21.7773 24.9763 21.8286 25.0787 21.8286L24.1057 30.8421L21.8523 31.0981L13.7094 32.1221Z" fill="#3268DA"/>
<path d="M20.0085 9.12758C20.5718 9.12758 21.084 9.1788 21.596 9.33244C22.2618 9.48607 22.8764 9.79335 23.3885 10.1518C24.3103 10.8176 24.7712 11.8419 25.0273 12.9174C25.0273 12.9686 25.0785 13.3271 25.1809 13.7368C25.2321 13.9416 25.2321 14.1977 25.2834 14.4026C25.3346 14.8635 25.437 15.3756 25.4882 15.6829C25.4882 15.8366 25.5394 15.939 25.5394 16.0414V16.0926V16.1438C25.5394 16.912 25.2321 17.5778 24.72 17.9875C24.6176 18.6021 24.464 19.1654 24.1567 19.6776C23.8494 20.2409 23.4909 20.7018 23.03 21.1115C21.6473 22.2894 19.9572 22.4943 18.3184 21.6749C17.7038 21.3676 17.1917 20.9067 16.7308 20.3945C16.526 20.1384 16.3723 19.8824 16.1675 19.5751C16.1163 19.4214 16.0651 19.319 16.0139 19.1654C16.0139 19.1142 15.9627 19.063 15.9627 19.063C15.9114 19.0117 15.8602 18.9605 15.7578 18.9093L15.7066 18.8581C15.6554 18.8069 15.6042 18.8069 15.5529 18.7557C14.9896 18.346 14.7848 17.7314 14.6823 17.373C14.6823 17.3217 14.6311 17.2193 14.6311 17.1681C14.5799 17.0145 14.5287 16.8608 14.5287 16.7072C14.4774 16.5535 14.4774 16.4511 14.4774 16.3487C14.4774 16.2463 14.375 15.4269 14.375 15.4269V15.3244C14.2214 13.9929 14.3238 12.5077 15.092 11.3298C15.1944 11.1762 15.2969 11.0225 15.3993 10.9201C15.3993 9.99826 15.3481 9.12767 15.1944 8.46187C15.809 8.82036 16.2187 9.3837 16.526 9.99826C16.6284 9.94705 16.7308 9.89583 16.8845 9.79341C17.6014 9.02524 18.3697 8.46187 19.1378 8.00098C19.0354 8.35947 18.9842 8.76915 18.8818 9.23009C18.9842 9.23009 19.0354 9.23009 19.1378 9.17888C19.4451 9.12766 19.7012 9.12766 20.0085 9.12766L20.0085 9.12758ZM17.7038 13.9416C17.0893 14.4537 16.3723 14.8123 15.6041 15.0683V15.3244C15.6553 15.7341 15.7065 16.0925 15.7065 16.195V16.2974C15.7065 16.3999 15.7065 16.4511 15.7577 16.5535C15.7577 16.6559 15.8089 16.8096 15.8601 16.912C15.8601 16.9632 15.9114 17.0144 15.9114 17.0656V17.1681C16.0138 17.5266 16.1162 17.7314 16.3211 17.8851C16.3723 17.9363 16.4235 17.9363 16.4747 17.9875L16.5771 18.0387C16.6796 18.0899 16.7308 18.1411 16.8332 18.2435L16.9868 18.3972L17.0893 18.602C17.1405 18.6533 17.1405 18.7557 17.1917 18.8069C17.2429 18.9093 17.2429 18.9605 17.2941 19.063C17.4478 19.319 17.6014 19.5239 17.7038 19.7288C18.0111 20.1385 18.4208 20.4969 18.8817 20.7018C20.0596 21.3163 21.2375 21.1627 22.2618 20.2921C22.6203 19.9848 22.8763 19.6775 23.0812 19.2678C23.286 18.8581 23.4397 18.3972 23.5421 17.8338L23.6445 17.4241L23.9518 17.1169C24.2591 16.8608 24.3615 16.4511 24.3615 16.1438V16.0414C24.3615 15.939 24.3103 15.5805 24.1566 14.5562C24.1054 14.3001 24.1054 14.0953 24.0542 13.9416C22.5178 14.0953 21.0327 13.6856 19.8547 12.9174C19.8035 14.2489 20.8278 15.3244 21.1351 15.7853C20.8278 15.7341 20.1621 15.478 19.3427 15.0171C18.8817 14.8123 18.472 14.6074 17.7038 13.9416Z" fill="#3268DA"/>
<path d="M1.87988 3.95545L34.8611 0.0120118C35.6805 -0.0904144 36.3975 0.47293 36.5 1.29237L37.3706 8.92326L33.4784 8.51356L32.9663 4.05804L4.59393 7.43811L7.87157 35.0932L23.7987 33.1983L22.7745 42.5701L6.59111 44.4651C5.7717 44.5675 5.05471 44.0041 4.95229 43.1847L0.49677 5.54319C0.49677 4.77502 1.06009 4.05799 1.8795 3.95561L1.87988 3.95545Z" fill="#3268DA"/>
</svg>
