<svg width="30" height="38" viewBox="0 0 30 38" fill="none" xmlns="http://www.w3.org/2000/svg">
<path d="M14.7589 29.8996C16.3281 28.3304 18.8813 28.3304 20.4589 29.8996L21.5107 30.9514L25.5143 26.9478C26.2946 26.159 27.3125 25.7688 28.3473 25.7688C28.3304 22.9358 26.8969 20.3402 24.5049 18.805L23.3259 18.05C21.0272 20.4844 17.7786 22.0112 14.1737 22.0112C10.5688 22.0112 7.32009 20.4759 5.02143 18.05L3.84241 18.805C1.43348 20.3487 0 22.9612 0 25.8027V33.5978C0 35.8117 1.82366 37.6268 4.05446 37.6268H16.7777L14.7589 35.5996C13.1813 34.0304 13.1813 31.4773 14.7589 29.8996Z" fill="#3366CC"/>
<path d="M14.1652 19.3223C19.5524 19.3223 23.9196 14.9969 23.9196 9.66116C23.9196 4.32545 19.5524 0 14.1652 0C8.77793 0 4.41071 4.32545 4.41071 9.66116C4.41071 14.9969 8.77793 19.3223 14.1652 19.3223Z" fill="#3366CC"/>
<path d="M29.3058 28.8563C28.7799 28.3304 27.9317 28.3304 27.4058 28.8563L21.5023 34.7599L18.5589 31.8081C18.0331 31.2822 17.1848 31.2822 16.6589 31.8081C16.1331 32.334 16.1331 33.1822 16.6589 33.7081L20.5607 37.6099C20.8152 37.8644 21.1545 38.0001 21.5107 38.0001C21.867 38.0001 22.2063 37.8559 22.4607 37.6099L29.3143 30.7563C29.8317 30.2304 29.8317 29.3737 29.3058 28.8563Z" fill="#3366CC"/>
</svg>
