<svg width="22" height="24" viewBox="0 0 22 24" fill="none" xmlns="http://www.w3.org/2000/svg">
<path d="M2.3587 18.8341C2.3689 18.8507 2.38041 18.867 2.39205 18.8821C4.25721 21.8684 7.47245 23.6516 11.0009 23.6516C14.4816 23.6516 17.6734 21.9079 19.4832 19.0596C19.5121 19.0297 19.5365 18.9976 19.5569 18.9664L19.5572 18.9659C19.8247 18.554 20.0723 18.0983 20.2981 17.6012L20.2992 17.5987C20.8634 16.2932 21.15 14.9177 21.1466 13.5845C21.1468 13.5829 21.1471 13.5812 21.1473 13.5794C21.1885 13.2977 21.6516 10.1291 21.6516 8.50052C21.6516 5.84386 20.0717 3.92665 17.9626 2.68109C15.8559 1.43692 13.2035 0.85 11.0009 0.85C8.27152 0.85 6.32637 2.34382 5.73189 2.86441C5.18671 2.90847 3.88072 3.09034 2.69067 3.84542C1.45198 4.63137 0.350122 6.03231 0.350122 8.50052C0.350122 9.35443 0.472437 10.5967 0.595572 11.6279C0.65728 12.1447 0.719452 12.6105 0.767147 12.9512C0.790994 13.1215 0.81124 13.2607 0.826017 13.3594C0.836437 13.429 0.84495 13.4842 0.850165 13.5143C0.851982 14.9234 1.13928 16.2943 1.7067 17.5961L1.70751 17.5979C1.91468 18.0567 2.12767 18.4626 2.3587 18.8341ZM2.3587 18.8341C2.35864 18.834 2.35857 18.8339 2.35851 18.8338L2.48626 18.7552M2.3587 18.8341C2.35876 18.8342 2.35882 18.8343 2.35888 18.8344L2.48626 18.7552M2.48626 18.7552C2.49426 18.7682 2.50426 18.7822 2.51526 18.7962L1.84422 17.5361C2.04923 17.9902 2.25924 18.3902 2.48626 18.7552ZM19.2464 17.1341C19.7465 15.978 20.0015 14.752 20.0015 13.5009C20.0027 13.4874 20.0118 13.4219 20.0266 13.3147C20.1283 12.5799 20.5015 9.88293 20.5015 8.50052C20.5015 4.01721 14.9461 2.00007 11.0009 2.00007C8.23966 2.00007 6.37253 3.8352 6.35453 3.8542C6.26052 3.9472 6.13351 3.99921 6.0015 4.00021C5.81749 4.00121 1.50019 4.07021 1.50019 8.50052C1.50019 10.1146 1.99023 13.3939 1.99523 13.4269C2.00023 14.755 2.25524 15.977 2.75928 17.1311M19.2464 17.1341L19.1099 17.0721C19.1097 17.0725 19.1095 17.0729 19.1093 17.0733M19.2464 17.1341L19.1087 17.0746C19.1089 17.0741 19.1091 17.0737 19.1093 17.0733M19.2464 17.1341C19.0474 17.5721 18.8274 17.9772 18.6474 18.2682M19.1093 17.0733C19.6009 15.9362 19.8515 14.7308 19.8515 13.5009V13.4867L19.8521 13.4868C19.8538 13.4694 19.8644 13.3925 19.8815 13.2687C19.9887 12.4907 20.3515 9.86009 20.3515 8.50052C20.3515 6.3321 19.0112 4.74871 17.1568 3.69961C15.301 2.64971 12.9521 2.15007 11.0009 2.15007C9.65365 2.15007 8.52211 2.59786 7.72292 3.05053C6.9305 3.49936 6.47202 3.94892 6.46354 3.95724L6.46342 3.95736L6.46008 3.96089L6.46003 3.96083C6.33782 4.08173 6.1732 4.14891 6.00264 4.1502L6.00232 4.15021C5.91825 4.15066 4.82151 4.1678 3.75085 4.72256C3.21766 4.99883 2.69416 5.40676 2.30355 6.00998C1.91343 6.61245 1.65019 7.41842 1.65019 8.50052C1.65019 10.1008 2.13794 13.3675 2.14353 13.4044L2.14518 13.4153L2.14522 13.4263C2.15015 14.7345 2.40113 15.9361 2.89651 17.0705M19.1093 17.0733C18.9163 17.498 18.7034 17.8908 18.5287 18.1748M2.89651 17.0705C2.89641 17.0703 2.89632 17.0701 2.89622 17.0699L2.75928 17.1311M2.89651 17.0705C2.89658 17.0707 2.89666 17.0709 2.89674 17.0711L2.75928 17.1311M2.89651 17.0705C3.06974 17.4581 3.24924 17.8007 3.43969 18.1114M2.75928 17.1311C2.93629 17.5271 3.1203 17.8782 3.31632 18.1972M3.31632 18.1972L3.43426 18.1045L3.43457 18.1049C3.43616 18.1069 3.43787 18.1091 3.43969 18.1114M3.31632 18.1972C3.32732 18.2112 3.33732 18.2242 3.34532 18.2382M3.31632 18.1972L3.44412 18.1187C3.44264 18.1163 3.44116 18.1139 3.43969 18.1114M3.43969 18.1114C3.44955 18.1241 3.46246 18.1413 3.47402 18.1611M3.34532 18.2382L3.47289 18.1593C3.47326 18.1599 3.47364 18.1605 3.47402 18.1611M3.34532 18.2382C4.99643 20.9074 7.85763 22.5015 11.0009 22.5015C14.0931 22.5015 16.9263 20.9504 18.5794 18.3532C18.5994 18.3232 18.6214 18.2932 18.6474 18.2682M3.34532 18.2382L3.47556 18.1638C3.47505 18.1629 3.47454 18.162 3.47402 18.1611M3.47402 18.1611C5.09795 20.785 7.91026 22.3515 11.0009 22.3515C14.042 22.3515 16.8274 20.8264 18.4528 18.2727L18.4546 18.27C18.4735 18.2416 18.4979 18.2072 18.5287 18.1748M18.5287 18.1748C18.5257 18.1797 18.5228 18.1845 18.5198 18.1893L18.6474 18.2682M18.5287 18.1748C18.5335 18.1699 18.5384 18.1649 18.5434 18.1601L18.6474 18.2682" fill="white" stroke="white" stroke-width="0.3"/>
</svg>
