<svg width="31" height="42" viewBox="0 0 31 42" fill="none" xmlns="http://www.w3.org/2000/svg">
<path d="M23.3125 10.9348V3.05981C23.3125 2.60864 23.2645 2.16567 23.1443 1.74731H28.0131C29.6467 1.74731 31 3.13364 31 4.81528V12.6903C31 14.3637 29.6467 15.75 28.0131 15.75H27.3805L25.1943 18.7278C24.9541 19.0395 24.5937 19.2364 24.2174 19.2528H24.1693C23.793 19.2528 23.4486 19.0969 23.2164 18.8016L20.6539 15.8075C22.2395 14.7903 23.3125 12.9856 23.3125 10.9348Z" fill="#3366CC"/>
<path d="M10.5 17.4973C10.516 17.4973 10.532 17.4973 10.548 17.4973C10.9324 17.4809 11.2928 17.2922 11.525 16.9723L13.7031 14.0027H17.7631C19.4127 14.0027 20.75 12.6328 20.75 10.943V3.06797C20.75 1.36992 19.4127 0 17.7631 0H3.24492C1.58731 0 0.25 1.36992 0.25 3.05977V10.9348C0.25 12.6246 1.5873 13.9945 3.23691 13.9945H6.92852L9.53906 17.0543C9.7793 17.3332 10.1316 17.4973 10.5 17.4973Z" fill="#3366CC"/>
<path d="M24.1693 29.7528C22.2808 29.7528 20.75 28.1846 20.75 26.25C20.75 24.3155 22.2808 22.7473 24.1693 22.7473C26.0577 22.7473 27.5886 24.3155 27.5886 26.25C27.5886 28.1846 26.0577 29.7528 24.1693 29.7528Z" fill="#3366CC"/>
<path d="M19.6049 32.1973C21.3266 33.5262 22.4557 35.659 22.4557 38.0625V38.4973H29.7188C30.4154 38.4973 31 37.8984 31 37.1848V36.307C31 33.6492 28.902 31.5 26.2994 31.5H22.0312C21.1424 31.5 20.3096 31.7625 19.6049 32.1973Z" fill="#3366CC"/>
<path d="M10.5 30.6223C7.66954 30.6223 5.375 28.2718 5.375 25.3723C5.375 22.4728 7.66954 20.1223 10.5 20.1223C13.3305 20.1223 15.625 22.4728 15.625 25.3723C15.625 28.2718 13.3305 30.6223 10.5 30.6223Z" fill="#3366CC"/>
<path d="M5.79937 33.2473H15.2005C17.7951 33.2473 19.9011 35.4047 19.9011 38.0626V40.6876C19.9011 41.4094 19.3246 42.0001 18.6199 42.0001H2.38804C1.68335 42.0001 1.10679 41.4094 1.10679 40.6876V38.0626C1.10679 35.4047 3.21284 33.2473 5.79937 33.2473Z" fill="#3366CC"/>
</svg>
