<svg width="36" height="38" viewBox="0 0 36 38" fill="none" xmlns="http://www.w3.org/2000/svg">
<path d="M26.6445 20.3359C21.7758 20.3359 17.8125 24.2992 17.8125 29.168C17.8125 34.0367 21.7758 38 26.6445 38C31.5578 38 35.5508 34.0367 35.5508 29.168C35.5508 24.2992 31.5578 20.3359 26.6445 20.3359ZM29.3535 28.0992L26.3848 31.6617C26.1695 31.9141 25.8578 32.0625 25.5312 32.0625C25.4867 32.0625 25.4422 32.0625 25.4051 32.0551C25.034 32.0105 24.7074 31.7805 24.5367 31.4465L23.3492 29.0715C23.0746 28.5223 23.2973 27.8543 23.8465 27.5797C24.3957 27.3051 25.0637 27.5277 25.3383 28.077L25.7613 28.9305L27.6391 26.6742C28.0324 26.1992 28.7375 26.1398 29.2051 26.5332C29.6875 26.9266 29.7469 27.6242 29.3535 28.0992Z" fill="#3366CC"/>
<path d="M26.1621 6.3457L21.6422 1.67734L21.6348 1.66992C20.6031 0.608594 19.1559 0 17.6715 0H3.33984C1.49922 0 0 1.49922 0 3.33984V32.2109C0 34.0516 1.49922 35.5508 3.33984 35.5508H17.6195C16.343 33.7473 15.5859 31.543 15.5859 29.168C15.5859 23.0672 20.5438 18.1094 26.6445 18.1094C27.023 18.1094 27.3941 18.1316 27.7578 18.1613V10.2422C27.7578 8.77266 27.1938 7.39219 26.1621 6.3457ZM11.8008 24.8633H5.86328C5.24727 24.8633 4.75 24.366 4.75 23.75C4.75 23.134 5.24727 22.6367 5.86328 22.6367H11.8008C12.4168 22.6367 12.9141 23.134 12.9141 23.75C12.9141 24.366 12.4168 24.8633 11.8008 24.8633ZM11.8008 18.9258H5.86328C5.24727 18.9258 4.75 18.4285 4.75 17.8125C4.75 17.1965 5.24727 16.6992 5.86328 16.6992H11.8008C12.4168 16.6992 12.9141 17.1965 12.9141 17.8125C12.9141 18.4285 12.4168 18.9258 11.8008 18.9258ZM11.8008 12.9883H5.86328C5.24727 12.9883 4.75 12.491 4.75 11.875C4.75 11.259 5.24727 10.7617 5.86328 10.7617H11.8008C12.4168 10.7617 12.9141 11.259 12.9141 11.875C12.9141 12.491 12.4168 12.9883 11.8008 12.9883ZM18.9258 18.9258H17.7383C17.1223 18.9258 16.625 18.4285 16.625 17.8125C16.625 17.1965 17.1223 16.6992 17.7383 16.6992H18.9258C19.5418 16.6992 20.0391 17.1965 20.0391 17.8125C20.0391 18.4285 19.5418 18.9258 18.9258 18.9258ZM18.9258 12.9883H17.7383C17.1223 12.9883 16.625 12.491 16.625 11.875C16.625 11.259 17.1223 10.7617 17.7383 10.7617H18.9258C19.5418 10.7617 20.0391 11.259 20.0391 11.875C20.0391 12.491 19.5418 12.9883 18.9258 12.9883Z" fill="#3366CC"/>
</svg>
