<svg width="35" height="26" viewBox="0 0 35 26" fill="none" xmlns="http://www.w3.org/2000/svg">
<path d="M1.7377 21.2673V5.64438C1.7377 5.06515 1.17478 4.64908 0.620023 4.8204C0.611865 4.8204 0.611865 4.8204 0.603707 4.82856C0.244746 4.93462 0 5.2691 0 5.65254V25.1017C0 25.6564 0.513967 26.0644 1.05241 25.942C3.96488 25.2893 6.9671 25.2241 9.88774 25.738C10.8422 25.9093 11.2991 24.604 10.4507 24.1309C8.05214 22.8011 5.3273 22.0832 2.5372 22.075C2.10482 22.0587 1.74585 21.7079 1.7377 21.2673Z" fill="#3366CC"/>
<path d="M3.3775 0.863506L3.32855 19.7497C3.32855 20.1984 3.66304 20.5656 4.11174 20.6063C8.22347 20.9979 12.0741 22.7601 15.0437 25.5992C15.5903 26.1213 16.504 25.7379 16.504 24.9791V7.75718C16.504 7.58586 16.4551 7.40638 16.349 7.26769C13.5345 3.26202 9.16982 0.643234 4.34017 0.015053C3.8262 -0.0502126 3.3775 0.349539 3.3775 0.863506Z" fill="#3366CC"/>
<path d="M30.2587 0.00699332C25.4046 0.602542 21.0236 3.23764 18.2172 7.26779C18.1193 7.40648 18.0704 7.5778 18.0704 7.75728V24.9874C18.0704 25.7461 18.9759 26.1295 19.5307 25.6074C22.5003 22.7765 26.3428 21.0062 30.4545 20.6146C30.8951 20.5738 31.2295 20.1985 31.2295 19.758V0.863604C31.2214 0.341479 30.7727 -0.0582723 30.2587 0.00699332Z" fill="#3366CC"/>
<path d="M31.9883 22.075C29.19 22.075 26.4733 22.8011 24.0748 24.1309C23.2264 24.604 23.6832 25.9012 24.6377 25.738C27.5584 25.2241 30.5606 25.2812 33.4731 25.942C34.0115 26.0644 34.5255 25.6564 34.5255 25.1017V5.65254C34.5255 5.27726 34.2807 4.94278 33.9218 4.82856C33.9136 4.82856 33.9136 4.82856 33.9054 4.8204C33.3507 4.64908 32.7878 5.06515 32.7878 5.64438V21.2755C32.7796 21.7079 32.4288 22.0587 31.9883 22.075Z" fill="#3366CC"/>
</svg>
