<svg width="226" height="65" viewBox="0 0 226 65" fill="none" xmlns="http://www.w3.org/2000/svg">
<g clip-path="url(#clip0_277_890)">
<path d="M87.3862 25.2661V39.8005H80.7056V26.4547C80.7056 24.6323 80.1057 24.149 79.354 24.149C78.3783 24.149 77.5519 24.9307 76.8027 26.4177V39.8005H70.1246V26.4547C70.1246 24.6323 69.5247 24.149 68.773 24.149C67.7973 24.149 66.9709 24.9307 66.2217 26.4177V39.8005H59.5436V19.9864H65.3979L65.8484 22.1787C67.4239 20.2453 69.226 19.3157 71.6653 19.3157C73.7661 19.3157 75.4562 20.3563 76.2427 22.2896C77.8929 20.2823 79.7324 19.3157 82.2463 19.3157C85.2855 19.3157 87.3862 21.5079 87.3862 25.2636V25.2661Z" fill="white"/>
<path d="M102.771 39.8007C101.158 45.0433 97.4046 47.9039 90.9505 48.1653L90.2386 43.5933C94.1042 43.184 95.6051 42.1803 96.6554 39.8007H94.3655L88.5112 19.9866H95.6026L98.6417 35.6751L102.131 19.9866H108.999L102.769 39.8007H102.771Z" fill="white"/>
<path d="M128.961 16.7141L125.847 20.3563C124.045 18.9433 122.245 18.238 120.182 18.238C118.119 18.238 117.031 19.0197 117.031 20.4303C117.031 21.9173 118.007 22.4376 121.909 23.7026C127.049 25.3006 129.64 27.4953 129.64 32.1782C129.64 36.8611 125.663 40.4688 118.985 40.4688C114.218 40.4688 110.955 38.7574 108.814 36.7131L112.229 32.9574C114.144 34.5184 116.207 35.4851 118.721 35.4851C121.235 35.4851 122.437 34.3704 122.437 32.696C122.437 31.0216 121.536 30.2424 117.934 29.1648C111.856 27.2684 109.905 24.7778 109.905 20.9851C109.905 16.2628 114.069 13.2888 119.662 13.2888C123.714 13.2888 126.641 14.5169 128.968 16.7091L128.961 16.7141Z" fill="white"/>
<path d="M148.433 21.8433L145.618 25.7099C144.418 24.7433 143.253 24.3339 141.979 24.3339C139.614 24.3339 138.263 25.8209 138.263 30.0229C138.263 34.225 139.764 35.3396 141.902 35.3396C143.216 35.3396 144.152 34.8932 145.541 34.0375L148.43 38.0891C146.628 39.5761 144.416 40.4688 141.563 40.4688C135.184 40.4688 131.318 36.2692 131.318 30.0599C131.318 23.8506 135.221 19.3157 141.374 19.3157C144.338 19.3157 146.551 20.2084 148.428 21.8433H148.433Z" fill="white"/>
<path d="M168.134 25.2662V39.8006H161.456V26.4548C161.456 24.6324 160.856 24.1491 159.955 24.1491C158.904 24.1491 157.929 24.9308 156.953 26.4178V39.8006H150.275V12.1793L156.953 11.511V21.9569C158.603 20.1715 160.368 19.3183 162.655 19.3183C166.07 19.3183 168.134 21.5105 168.134 25.2662Z" fill="white"/>
<path d="M190.797 29.912C190.797 36.3062 187.006 40.4688 180.778 40.4688C174.551 40.4688 170.76 36.6391 170.76 29.8725C170.76 23.4782 174.551 19.3157 180.778 19.3157C187.006 19.3157 190.797 23.1453 190.797 29.9095V29.912ZM177.625 29.8774C177.625 34.04 178.638 35.6774 180.776 35.6774C182.914 35.6774 183.927 33.929 183.927 29.9144C183.927 25.8998 182.914 24.1145 180.776 24.1145C178.638 24.1145 177.625 25.8628 177.625 29.8774Z" fill="white"/>
<path d="M212.708 29.912C212.708 36.3062 208.917 40.4688 202.689 40.4688C196.462 40.4688 192.671 36.6391 192.671 29.8725C192.671 23.4782 196.462 19.3157 202.689 19.3157C208.917 19.3157 212.708 23.1453 212.708 29.9095V29.912ZM199.536 29.8774C199.536 34.04 200.549 35.6774 202.687 35.6774C204.825 35.6774 205.838 33.929 205.838 29.9144C205.838 25.8998 204.825 24.1145 202.687 24.1145C200.549 24.1145 199.536 25.8628 199.536 29.8774Z" fill="white"/>
<path d="M215.334 34.41V12.1793L222.012 11.511V34.1881C222.012 34.8934 222.313 35.2657 222.951 35.2657C223.326 35.2657 223.625 35.1917 223.852 35.1178L225.091 39.8031C224.153 40.2125 222.764 40.4714 221.226 40.4714C217.435 40.4714 215.334 38.3161 215.334 34.4125V34.41Z" fill="white"/>
<path d="M28.1516 0.041748C43.1756 0.041748 55.3944 12.1497 55.3944 27.0318C55.3944 41.914 43.1756 54.0219 28.1516 54.0219C13.1276 54.0219 0.908813 41.914 0.908813 27.0318C0.908813 12.1497 13.1301 0.041748 28.1516 0.041748ZM53.1716 27.0318C53.1716 13.3654 41.9485 2.24386 28.1516 2.24386C14.3547 2.24386 3.13652 13.3654 3.13652 27.0318C3.13652 40.6983 14.3597 51.8198 28.1541 51.8198C41.9485 51.8198 53.1741 40.6983 53.1741 27.0318H53.1716Z" fill="white"/>
<path d="M45.2116 22.7337L29.0426 17.0842C28.8261 17.0077 28.5921 17.0077 28.3756 17.0842L12.2066 22.7337C11.8059 22.8768 11.5396 23.2516 11.5396 23.6757C11.5396 23.7374 11.5445 23.7966 11.557 23.8582C11.547 23.8977 11.5396 23.9347 11.5396 23.9741V32.6445C11.5396 33.081 12.0971 33.4262 12.7791 33.4262C13.4611 33.4262 14.0261 33.0785 14.0261 32.6445V25.2515L18.611 26.8667V33.372C18.611 34.4471 19.741 35.3571 21.9712 36.0722C23.9127 36.6961 26.3047 37.0364 28.7091 37.0364C31.1135 37.0364 33.5055 36.6936 35.452 36.0722C37.6772 35.3546 38.8072 34.4471 38.8072 33.372V26.8667L45.2116 24.6128C45.6173 24.4747 45.8836 24.095 45.8836 23.6757C45.8836 23.2565 45.6098 22.8768 45.2116 22.7337Z" fill="white"/>
<path d="M170.21 57.2872C170.407 56.7303 170.708 56.2996 171.118 55.9972C171.527 55.6948 172.051 55.5436 172.688 55.5436C173.214 55.5436 173.645 55.6355 173.979 55.8211C174.315 56.0068 174.574 56.2518 174.756 56.5599C174.937 56.8662 175.059 57.2049 175.121 57.5763H176.496C176.411 56.9714 176.218 56.4336 175.919 55.9589C175.619 55.4843 175.2 55.1149 174.667 54.845C174.132 54.5751 173.471 54.4412 172.681 54.4412C171.792 54.4412 171.039 54.6326 170.42 55.0173C169.804 55.402 169.335 55.9551 169.012 56.6805C168.689 57.404 168.529 58.2749 168.529 59.2912V60.0989C168.529 61.1152 168.715 61.988 169.082 62.7134C169.451 63.4407 169.961 63.9957 170.612 64.3785C171.263 64.7632 172.006 64.9546 172.843 64.9546C173.62 64.9546 174.251 64.8685 174.74 64.6982C175.229 64.5278 175.613 64.3249 175.89 64.0933C176.166 63.8618 176.369 63.655 176.496 63.4713V59.718H172.743V60.807H175.126V63.1134C175.036 63.2167 174.906 63.3258 174.736 63.4407C174.566 63.5555 174.331 63.6531 174.031 63.7354C173.73 63.8177 173.338 63.8579 172.849 63.8579C172.261 63.8579 171.75 63.7086 171.309 63.4081C170.869 63.1076 170.527 62.6789 170.279 62.1181C170.034 61.5573 169.91 60.8836 169.91 60.097V59.274C169.91 58.5064 170.009 57.8423 170.204 57.2853L170.21 57.2872Z" fill="white"/>
<path d="M183.254 62.7458C183.109 63.075 182.891 63.3411 182.587 63.5401C182.261 63.7526 181.819 63.8598 181.26 63.8598C181.025 63.8598 180.799 63.8119 180.582 63.7162C180.368 63.6205 180.192 63.4463 180.057 63.1956C179.921 62.9449 179.854 62.5889 179.854 62.1314V57.2106H178.527V62.1161C178.527 63.1286 178.758 63.854 179.222 64.2942C179.686 64.7345 180.294 64.9546 181.046 64.9546C181.797 64.9546 182.373 64.8034 182.812 64.4971C182.991 64.3727 183.15 64.2292 183.289 64.0665L183.316 64.8129H184.579V57.2068H183.252V62.7439L183.254 62.7458Z" fill="white"/>
<path d="M192.421 63.1575V59.6147C192.421 59.0481 192.299 58.5754 192.056 58.1983C191.812 57.8213 191.474 57.538 191.045 57.3504C190.614 57.1629 190.12 57.0691 189.562 57.0691C188.941 57.0691 188.404 57.1801 187.948 57.4021C187.493 57.6241 187.139 57.9074 186.888 58.2519C186.637 58.5964 186.511 58.9505 186.511 59.3161H187.838C187.838 59.0998 187.906 58.9008 188.043 58.7189C188.18 58.5352 188.373 58.3878 188.621 58.2768C188.87 58.1639 189.156 58.1084 189.482 58.1084C190.012 58.1084 190.414 58.2424 190.684 58.5122C190.956 58.7821 191.092 59.1438 191.092 59.5975V60.2023H189.801C188.746 60.2023 187.906 60.4147 187.282 60.8377C186.658 61.2626 186.345 61.8847 186.345 62.7038C186.345 63.1211 186.453 63.5001 186.668 63.8427C186.882 64.1853 187.185 64.4551 187.576 64.6542C187.966 64.8532 188.422 64.9528 188.941 64.9528C189.357 64.9528 189.734 64.8819 190.066 64.7384C190.4 64.5948 190.688 64.4149 190.931 64.1967C190.999 64.1355 191.063 64.0742 191.124 64.0111C191.132 64.0781 191.138 64.1431 191.148 64.212C191.186 64.4628 191.237 64.6637 191.304 64.813H192.687V64.7001C192.599 64.4934 192.531 64.2484 192.485 63.9613C192.438 63.6742 192.417 63.4063 192.417 63.1536L192.421 63.1575ZM190.931 62.9527C190.752 63.2015 190.508 63.4101 190.201 63.5785C189.894 63.747 189.538 63.8312 189.137 63.8312C188.659 63.8312 188.296 63.7048 188.047 63.4522C187.798 63.1996 187.674 62.8895 187.674 62.5239C187.674 62.055 187.877 61.7047 188.285 61.4693C188.692 61.2358 189.268 61.1172 190.016 61.1172H191.094V62.677C191.049 62.767 190.997 62.8589 190.931 62.9507V62.9527Z" fill="white"/>
<path d="M197.614 57.0691C197.061 57.0691 196.607 57.2222 196.256 57.5304C196.078 57.6854 195.925 57.8653 195.796 58.0701L195.771 57.2107H194.48V64.8169H195.807V59.4252C195.834 59.362 195.862 59.2989 195.892 59.2395C196.043 58.9505 196.258 58.7247 196.534 58.562C196.81 58.3974 197.15 58.3151 197.552 58.3151C197.676 58.3151 197.786 58.3189 197.882 58.3266C197.979 58.3342 198.085 58.3495 198.197 58.3725V57.1705C198.149 57.1476 198.064 57.1246 197.938 57.1035C197.813 57.0825 197.705 57.071 197.616 57.071L197.614 57.0691Z" fill="white"/>
<path d="M204.24 57.9667C204.087 57.7906 203.917 57.6375 203.73 57.5092C203.299 57.2164 202.762 57.0709 202.119 57.0709C201.476 57.0709 200.977 57.2317 200.523 57.5552C200.069 57.8786 199.716 58.3322 199.463 58.916C199.209 59.4998 199.084 60.1773 199.084 60.9506V61.0979C199.084 61.8386 199.209 62.499 199.463 63.0808C199.716 63.6627 200.069 64.1201 200.523 64.4551C200.977 64.79 201.505 64.9584 202.105 64.9584C202.758 64.9584 203.301 64.813 203.734 64.5201C203.943 64.3785 204.128 64.2082 204.292 64.011L204.354 64.8187H205.567V54.022H204.24V57.9686V57.9667ZM203.506 63.5861C203.224 63.7699 202.867 63.8598 202.432 63.8598C201.959 63.8598 201.574 63.7354 201.275 63.4847C200.977 63.2339 200.759 62.9009 200.618 62.4837C200.479 62.0664 200.409 61.6051 200.409 61.0999V60.9525C200.409 60.4472 200.479 59.9821 200.618 59.5572C200.757 59.1323 200.977 58.7954 201.279 58.5409C201.58 58.2863 201.968 58.1619 202.445 58.1619C202.776 58.1619 203.064 58.2174 203.307 58.3303C203.55 58.4433 203.757 58.5945 203.925 58.7839C204.047 58.9218 204.151 59.073 204.24 59.2376V62.7574C204.221 62.7937 204.203 62.8301 204.184 62.8665C204.014 63.1669 203.788 63.4081 203.506 63.5899V63.5861Z" fill="white"/>
<path d="M209.045 57.2107H207.718V64.8168H209.045V57.2107Z" fill="white"/>
<path d="M208.392 54.4412C208.137 54.4412 207.944 54.5139 207.814 54.6594C207.685 54.8048 207.619 54.9809 207.619 55.1857C207.619 55.3905 207.685 55.5589 207.814 55.7025C207.944 55.846 208.137 55.9168 208.392 55.9168C208.647 55.9168 208.842 55.846 208.977 55.7025C209.112 55.5589 209.18 55.3867 209.18 55.1857C209.18 54.9847 209.112 54.8029 208.977 54.6594C208.842 54.5158 208.647 54.4412 208.392 54.4412Z" fill="white"/>
<path d="M216.991 63.1575V59.6147C216.991 59.0481 216.869 58.5754 216.625 58.1983C216.382 57.8213 216.044 57.538 215.615 57.3504C215.184 57.1629 214.69 57.0691 214.131 57.0691C213.511 57.0691 212.974 57.1801 212.518 57.4021C212.062 57.6241 211.709 57.9074 211.458 58.2519C211.207 58.5964 211.081 58.9505 211.081 59.3161H212.408C212.408 59.0998 212.476 58.9008 212.613 58.7189C212.75 58.5352 212.943 58.3878 213.191 58.2768C213.44 58.1639 213.726 58.1084 214.052 58.1084C214.582 58.1084 214.983 58.2424 215.254 58.5122C215.526 58.7821 215.661 59.1438 215.661 59.5975V60.2023H214.371C213.316 60.2023 212.476 60.4147 211.852 60.8377C211.228 61.2626 210.915 61.8847 210.915 62.7038C210.915 63.1211 211.023 63.5001 211.237 63.8427C211.452 64.1853 211.755 64.4551 212.145 64.6542C212.536 64.8532 212.992 64.9528 213.511 64.9528C213.927 64.9528 214.303 64.8819 214.636 64.7384C214.97 64.5948 215.258 64.4149 215.501 64.1967C215.569 64.1355 215.632 64.0742 215.694 64.0111C215.702 64.0781 215.708 64.1431 215.717 64.212C215.756 64.4628 215.806 64.6637 215.874 64.813H217.257V64.7001C217.168 64.4934 217.101 64.2484 217.054 63.9613C217.008 63.6742 216.987 63.4063 216.987 63.1536L216.991 63.1575ZM215.501 62.9527C215.321 63.2015 215.078 63.4101 214.771 63.5785C214.464 63.747 214.108 63.8312 213.706 63.8312C213.229 63.8312 212.866 63.7048 212.617 63.4522C212.368 63.1996 212.244 62.8895 212.244 62.5239C212.244 62.055 212.447 61.7047 212.854 61.4693C213.262 61.2358 213.838 61.1172 214.585 61.1172H215.663V62.677C215.619 62.767 215.567 62.8589 215.501 62.9507V62.9527Z" fill="white"/>
<path d="M224.792 58.229C224.591 57.8251 224.307 57.5323 223.94 57.3466C223.573 57.161 223.136 57.0691 222.63 57.0691C222.01 57.0691 221.467 57.228 221.001 57.5438C220.752 57.7141 220.534 57.9189 220.344 58.1543L220.304 57.2107H219.048V64.8169H220.375V59.3793C220.458 59.2166 220.553 59.0654 220.665 58.9276C220.858 58.6883 221.088 58.5007 221.353 58.3649C221.618 58.229 221.913 58.1601 222.24 58.1601C222.566 58.1601 222.85 58.2156 223.076 58.3247C223.302 58.4338 223.474 58.6118 223.59 58.8548C223.706 59.0979 223.764 59.4195 223.764 59.8176V64.815H225.091V59.831C225.091 59.1649 224.991 58.6309 224.79 58.229H224.792Z" fill="white"/>
</g>
<defs>
<clipPath id="clip0_277_890">
<rect width="224.182" height="64.9166" fill="white" transform="translate(0.908813 0.041748)"/>
</clipPath>
</defs>
</svg>
