<svg width="33" height="30" viewBox="0 0 33 30" fill="none" xmlns="http://www.w3.org/2000/svg">
<g clip-path="url(#clip0_1346_1646)">
<path d="M16.571 29.9898C15.7431 30.0082 14.9142 29.9775 14.0864 29.9805C13.4401 29.9826 12.7939 29.9877 12.1477 29.9949C11.775 29.999 11.4023 29.9713 11.0296 29.9785C10.3573 29.9918 9.68496 29.9888 9.01368 29.9949C8.64516 29.998 8.27768 29.9713 7.90812 29.9785C7.2358 29.9918 6.56348 29.9918 5.8922 29.9929C5.5717 29.9929 5.25016 29.9795 4.92966 29.9795C4.13206 29.9795 3.33447 30.0103 2.53583 29.9867C2.23934 29.9775 1.95016 29.9262 1.66515 29.8523C1.62653 29.8421 1.56702 29.8451 1.56285 29.7908C1.55867 29.7415 1.614 29.7272 1.64845 29.7067C2.91897 28.9486 4.19053 28.1927 5.46 27.4336C7.21387 26.3843 8.96671 25.3329 10.7206 24.2835C12.8409 23.0147 14.9622 21.7489 17.0826 20.4801C18.8479 19.4246 20.6112 18.366 22.3765 17.3095C23.9081 16.3925 25.4406 15.4775 26.9732 14.5615C28.3721 13.7245 29.7679 12.8844 31.171 12.0536C31.4121 11.911 31.4894 11.6587 31.2138 11.4504C30.8056 11.1407 30.3744 10.8606 29.9579 10.5632C29.0924 9.94464 28.2249 9.32714 27.3573 8.71067C26.9679 8.43372 26.5754 8.15985 26.1829 7.887C26.1192 7.84289 26.0816 7.81622 26.1568 7.74544C26.4188 7.49619 26.6767 7.24385 26.9314 6.98742C26.9972 6.92177 27.04 6.92177 27.1151 6.97511C28.1591 7.7157 29.2052 8.45321 30.2502 9.19175C30.8233 9.59692 31.4007 9.99901 31.9686 10.4114C32.596 10.8678 32.9259 11.4925 32.9718 12.2515C33.0219 13.0639 32.9938 13.8794 32.9948 14.6928C32.9948 18.0809 32.9927 21.4689 32.9917 24.8569C32.9917 25.7175 32.9917 26.5792 32.9917 27.4398C32.9917 28.1383 32.785 28.763 32.2703 29.2574C31.7911 29.718 31.2106 29.9754 30.531 29.9805C29.5904 29.9887 28.6487 30.0082 27.7081 29.9887C26.637 29.9672 25.5659 30.0205 24.4948 29.9898C23.4842 29.9611 22.4736 30.0195 21.4641 29.9898C20.3888 29.959 19.3135 30.0113 18.2382 29.9898C17.6828 29.9785 17.1285 29.9641 16.5741 29.9867L16.571 29.9898Z" fill="#3366CC"/>
<path d="M0.00519145 19.9304C0.00519145 17.5435 0.00519145 15.1576 0.00519145 12.7707C0.00519145 12.4178 0.00832336 12.0639 0.110633 11.7193C0.277668 11.1541 0.609652 10.7048 1.09406 10.3612C2.47419 9.38057 3.85432 8.39893 5.23654 7.42139C6.86096 6.27153 8.48956 5.12577 10.1129 3.97488C11.5087 2.98606 12.9003 1.99212 14.2941 1.00022C14.5363 0.827894 14.7785 0.655568 15.0227 0.48632C15.9519 -0.161951 17.0543 -0.162977 17.9793 0.490423C19.5734 1.61772 21.1634 2.74912 22.7555 3.87846C22.7972 3.90821 22.84 3.93693 22.8828 3.96668C23.053 4.08259 23.0551 4.08464 22.9121 4.22517C22.673 4.46006 22.4287 4.68983 22.1948 4.92985C22.1113 5.01499 22.0591 4.96063 21.9975 4.91754C21.3054 4.42724 20.6132 3.9359 19.9211 3.44457C19.0285 2.81169 18.1317 2.18393 17.2422 1.54694C16.9228 1.3182 16.5793 1.2464 16.1993 1.32641C16.0438 1.35923 15.9101 1.43821 15.7828 1.52848C14.9914 2.08854 14.2043 2.65475 13.4077 3.20763C12.4587 3.86615 11.5254 4.5452 10.5848 5.21501C9.6442 5.88482 8.69314 6.54027 7.76818 7.2306C7.26498 7.60602 6.72838 7.93939 6.21579 8.30353C5.08203 9.11079 3.94619 9.91395 2.81139 10.7202C2.45018 10.9777 2.08165 11.2249 1.73192 11.4977C1.64945 11.5623 1.65467 11.6003 1.74341 11.6526C2.83645 12.3029 3.92844 12.9553 5.02044 13.6077C6.78997 14.6652 8.55847 15.7228 10.328 16.7803C11.2018 17.3024 12.0756 17.8235 12.9484 18.3476C13.9026 18.92 14.8547 19.4944 15.8078 20.0678C15.8892 20.116 15.9738 20.1591 16.0594 20.2001C16.1356 20.2371 16.1356 20.2637 16.0615 20.3068C15.6888 20.5232 15.3171 20.7417 14.9465 20.9633C13.9214 21.5767 12.8993 22.1932 11.8741 22.8066C10.9826 23.3399 10.0889 23.8703 9.19738 24.4036C8.51253 24.8129 7.83082 25.2263 7.14597 25.6356C5.65413 26.5269 4.16229 27.4173 2.67046 28.3087C2.14534 28.6225 1.61917 28.9374 1.0951 29.2534C0.867513 29.3908 0.871689 29.3898 0.692126 29.199C0.219206 28.6923 -0.00316034 28.1035 -2.84194e-05 27.4101C0.0114553 24.9175 0.00414747 22.424 0.00414747 19.9304H0.00519145Z" fill="#3366CC"/>
<path d="M16.5783 16.057C16.4864 16.0703 16.4175 16.016 16.3549 15.9565C16.0563 15.6662 15.7588 15.3738 15.4612 15.0815C13.8326 13.4824 12.2061 11.8801 10.5733 10.2851C10.3551 10.0728 10.3666 9.90866 10.566 9.70557C11.0035 9.26142 11.4524 8.82958 11.8971 8.39261C12.0746 8.21823 12.2541 8.04386 12.4295 7.86743C12.6717 7.62433 12.8304 7.6233 13.0768 7.86743C13.5831 8.37004 14.0884 8.87368 14.5968 9.37425C15.2336 10.002 15.8746 10.6257 16.5104 11.2534C16.5845 11.3273 16.6263 11.3283 16.7036 11.2524C19.7927 8.2131 22.8849 5.17587 25.9761 2.13863C26.0221 2.0935 26.0649 2.04529 26.1129 2.00221C26.2455 1.88425 26.4511 1.88015 26.5712 2.00734C27.1944 2.66689 27.8782 3.26593 28.5119 3.9142C28.727 4.13371 28.7239 4.27321 28.5015 4.49067C27.8448 5.13484 27.1871 5.77798 26.5305 6.42215C25.4573 7.47559 24.3841 8.53109 23.3109 9.58555C22.2742 10.6041 21.2375 11.6217 20.2019 12.6402C19.0984 13.7255 17.996 14.8107 16.8925 15.8959C16.8059 15.9811 16.7203 16.0672 16.5772 16.057H16.5783Z" fill="#3366CC"/>
</g>
<defs>
<clipPath id="clip0_1346_1646">
<rect width="33" height="30" fill="white"/>
</clipPath>
</defs>
</svg>
