<svg width="34" height="38" viewBox="0 0 34 38" fill="none" xmlns="http://www.w3.org/2000/svg">
<path d="M30.2306 0H3.35703C1.50306 0 8.1395e-05 1.37506 8.1395e-05 3.07125V33.7343C-0.00891846 34.9118 0.72907 35.9822 1.89005 36.4927C3.06903 37.0114 4.47301 36.8632 5.48999 36.1057C5.78699 35.8669 6.17398 35.7434 6.56098 35.7516C7.23597 35.7516 7.52396 35.9657 8.12695 36.5092C9.81893 38.3042 12.7889 38.51 14.7508 36.9538C14.9218 36.8138 15.0928 36.6656 15.2368 36.5092C15.8488 35.974 16.1278 35.7516 16.8028 35.7516C17.4778 35.7516 17.7478 35.9657 18.3598 36.5092C20.0518 38.3042 23.0127 38.5018 24.9747 36.9538C25.1457 36.8138 25.3077 36.6656 25.4607 36.5092C26.0727 35.974 26.3517 35.7516 27.0267 35.7516C27.4136 35.7352 27.7916 35.8587 28.0796 36.0892C29.1056 36.8468 30.5096 36.995 31.6886 36.4762C32.8496 35.974 33.5785 34.8953 33.5695 33.7261V3.07125C33.5876 1.37506 32.0846 0 30.2306 0ZM9.11694 27.6659C8.05495 27.6659 7.19997 26.8755 7.19997 25.9121C7.19997 24.9488 8.06395 24.1583 9.11694 24.1583C10.1789 24.1583 11.0339 24.9488 11.0339 25.9121C11.0339 26.8755 10.1699 27.6659 9.11694 27.6659ZM9.11694 18.8804C8.05495 18.8804 7.19997 18.0899 7.19997 17.1265C7.19997 16.1632 8.06395 15.3727 9.11694 15.3727C10.1789 15.3727 11.0339 16.1632 11.0339 17.1265C11.0339 18.0899 10.1699 18.8804 9.11694 18.8804ZM9.11694 10.0948C8.05495 10.0948 7.19997 9.30432 7.19997 8.34095C7.19997 7.37759 8.06395 6.58713 9.11694 6.58713C10.1789 6.58713 11.0339 7.37759 11.0339 8.34095C11.0339 9.30432 10.1699 10.0948 9.11694 10.0948ZM24.4707 27.2213H13.9139C13.1219 27.2213 12.4739 26.6285 12.4739 25.9039C12.4739 25.1793 13.1219 24.5865 13.9139 24.5865H24.4707C25.2627 24.5865 25.9107 25.1793 25.9107 25.9039C25.9107 26.6285 25.2717 27.2213 24.4707 27.2213ZM24.4707 18.444H13.9139C13.1219 18.444 12.4739 17.8511 12.4739 17.1265C12.4739 16.402 13.1219 15.8091 13.9139 15.8091H24.4707C25.2627 15.8091 25.9107 16.402 25.9107 17.1265C25.9107 17.8511 25.2717 18.444 24.4707 18.444ZM24.4707 9.65838H13.9139C13.1219 9.65838 12.4739 9.06554 12.4739 8.34095C12.4739 7.61637 13.1219 7.02353 13.9139 7.02353H24.4707C25.2627 7.02353 25.9107 7.61637 25.9107 8.34095C25.9107 9.06554 25.2717 9.65838 24.4707 9.65838Z" fill="#3366CC"/>
</svg>
