<svg width="23" height="23" viewBox="0 0 23 23" fill="none" xmlns="http://www.w3.org/2000/svg">
<g clip-path="url(#clip0_287_994)">
<path d="M17.25 22.9999C17.1542 22.9999 17.0583 22.9808 16.9682 22.9424C16.7459 22.8475 11.5 20.5629 11.5 15.8642V12.0136C11.5 11.706 11.6955 11.4328 11.9878 11.3332L17.019 9.62159C17.1685 9.5708 17.3315 9.5708 17.481 9.62159L22.5122 11.3332C22.8045 11.4328 23 11.706 23 12.0136V15.8642C23 20.5629 17.7541 22.8475 17.5318 22.9434C17.4417 22.9808 17.3458 22.9999 17.25 22.9999ZM12.9375 12.5282V15.8632C12.9375 19.0573 16.2495 20.9778 17.25 21.4838C18.2505 20.9778 21.5625 19.0573 21.5625 15.8632V12.5282L17.25 11.061L12.9375 12.5282Z" fill="white"/>
<path d="M17.0104 18.6875C16.8207 18.6875 16.6367 18.6128 16.5025 18.4767L14.5858 16.56C14.305 16.2792 14.305 15.824 14.5858 15.5432C14.8666 15.2624 15.3218 15.2624 15.6026 15.5432L16.9338 16.8743L19.3104 13.7042C19.5462 13.387 19.9985 13.3218 20.3167 13.5614C20.6339 13.7991 20.6981 14.2495 20.4595 14.5676L17.5845 18.401C17.4599 18.5677 17.2692 18.6712 17.0603 18.6866C17.044 18.6866 17.0277 18.6875 17.0104 18.6875Z" fill="white"/>
<path d="M10.1488 20.125H2.63542C1.18163 20.125 0 18.9434 0 17.4896V2.63542C0 1.18163 1.18163 0 2.63542 0H13.6563C15.11 0 16.2917 1.18163 16.2917 2.63542V7.83917C16.2917 8.23592 15.9697 8.55792 15.5729 8.55792C15.1762 8.55792 14.8542 8.23592 14.8542 7.83917V2.63542C14.8542 1.97512 14.3165 1.4375 13.6563 1.4375H2.63542C1.97513 1.4375 1.4375 1.97512 1.4375 2.63542V17.4896C1.4375 18.1499 1.97513 18.6875 2.63542 18.6875H10.1488C10.5455 18.6875 10.8675 19.0095 10.8675 19.4062C10.8675 19.803 10.5455 20.125 10.1488 20.125Z" fill="white"/>
<path d="M12.6979 9.10425H3.59375C3.197 9.10425 2.875 8.78225 2.875 8.3855C2.875 7.98875 3.197 7.66675 3.59375 7.66675H12.6979C13.0947 7.66675 13.4167 7.98875 13.4167 8.3855C13.4167 8.78225 13.0947 9.10425 12.6979 9.10425Z" fill="white"/>
<path d="M8.86458 12.9375H3.59375C3.197 12.9375 2.875 12.6155 2.875 12.2188C2.875 11.822 3.197 11.5 3.59375 11.5H8.86458C9.26133 11.5 9.58333 11.822 9.58333 12.2188C9.58333 12.6155 9.26133 12.9375 8.86458 12.9375Z" fill="white"/>
<path d="M7.90625 5.27075H3.59375C3.197 5.27075 2.875 4.94875 2.875 4.552C2.875 4.15525 3.197 3.83325 3.59375 3.83325H7.90625C8.303 3.83325 8.625 4.15525 8.625 4.552C8.625 4.94875 8.303 5.27075 7.90625 5.27075Z" fill="white"/>
</g>
<defs>
<clipPath id="clip0_287_994">
<rect width="23" height="23" fill="white"/>
</clipPath>
</defs>
</svg>
