<svg width="25" height="25" viewBox="0 0 25 25" fill="none" xmlns="http://www.w3.org/2000/svg">
<path d="M12.5 2.08325C6.74686 2.08325 2.08331 6.74679 2.08331 12.4999C2.08331 18.253 6.74686 22.9166 12.5 22.9166C18.2531 22.9166 22.9166 18.253 22.9166 12.4999C22.9166 6.74679 18.2531 2.08325 12.5 2.08325Z" stroke="#FFFBFB" stroke-width="1.5" stroke-linecap="round" stroke-linejoin="round"/>
<path d="M4.44891 19.1103C4.44891 19.1103 6.77079 16.1458 12.5 16.1458C18.2291 16.1458 20.552 19.1103 20.552 19.1103" stroke="#FFFBFB" stroke-width="1.5" stroke-linecap="round" stroke-linejoin="round"/>
<path d="M12.5 12.5C13.3288 12.5 14.1237 12.1708 14.7097 11.5847C15.2958 10.9987 15.625 10.2038 15.625 9.375C15.625 8.5462 15.2958 7.75134 14.7097 7.16529C14.1237 6.57924 13.3288 6.25 12.5 6.25C11.6712 6.25 10.8763 6.57924 10.2903 7.16529C9.70424 7.75134 9.375 8.5462 9.375 9.375C9.375 10.2038 9.70424 10.9987 10.2903 11.5847C10.8763 12.1708 11.6712 12.5 12.5 12.5V12.5Z" stroke="#FFFBFB" stroke-width="1.5" stroke-linecap="round" stroke-linejoin="round"/>
</svg>
