<svg width="10" height="17" viewBox="0 0 10 17" fill="none" xmlns="http://www.w3.org/2000/svg">
<path d="M9.99873 8.44714C9.98672 8.09997 9.84288 7.76918 9.59426 7.51762L2.5344 0.43553C2.16978 0.0701968 1.6306 -0.0800431 1.11986 0.0413349C0.608965 0.162722 0.204222 0.537265 0.0580974 1.02401C-0.0881762 1.51072 0.0462366 2.03551 0.410857 2.40084L6.48708 8.50007L0.410858 14.5993L0.410858 14.5992C0.0462378 14.9645 -0.0881635 15.4893 0.0580987 15.976C0.20422 16.4627 0.608967 16.8373 1.11986 16.9587C1.6306 17.08 2.16979 16.9298 2.5344 16.5645L9.59426 9.48238C9.86932 9.20431 10.0153 8.83047 9.99873 8.4467L9.99873 8.44714Z" fill="white"/>
</svg>
