<svg width="23" height="28" viewBox="0 0 23 28" fill="none" xmlns="http://www.w3.org/2000/svg">
<path d="M4.12891 21.2188V0H2.80547C1.25234 0 0 1.25781 0 2.80547V22.3836C0.749219 21.6344 1.76641 21.2188 2.80547 21.2188H4.12891Z" fill="#3268DA"/>
<path d="M21.3336 23.4171C21.7164 23.0343 21.4485 22.3835 20.9125 22.3835H2.81096C1.25784 22.3835 0.00549316 23.6468 0.00549316 25.189C0.00549316 26.7476 1.25784 27.9945 2.81096 27.9945H20.7594C21.4813 27.9945 21.8805 27.1468 21.4156 26.5945C20.5625 25.5718 20.1906 24.5437 21.3336 23.4171ZM17.5711 25.7796H4.39143C4.10159 25.7796 3.83362 25.5718 3.79534 25.282C3.74065 24.921 4.02502 24.6093 4.37502 24.6093H17.5547C17.8446 24.6093 18.1125 24.8171 18.1508 25.107C18.2 25.4679 17.9211 25.7796 17.5711 25.7796Z" fill="#3268DA"/>
<path d="M21.9367 0.00537109H5V21.2187H22.4617V0.585059C22.4617 0.267871 22.232 0.00537109 21.9367 0.00537109ZM19.3992 13.8522C19.3992 14.3882 18.9672 14.8312 18.4203 14.8312H9.04141C8.50547 14.8312 8.0625 14.3991 8.0625 13.8522V7.37178C8.0625 6.83584 8.49453 6.39287 9.04141 6.39287H18.4258C18.9617 6.39287 19.4047 6.8249 19.4047 7.37178V13.8522H19.3992Z" fill="#3268DA"/>
<path d="M14.8586 10.6804C14.7656 10.571 14.6399 10.5164 14.5031 10.5164H14.0383C13.918 10.5164 13.8031 10.5601 13.7102 10.6367C13.6117 10.7296 13.568 10.85 13.568 10.9812C13.568 11.107 13.6172 11.2164 13.6992 11.3093C13.7813 11.3914 13.8961 11.4406 14.0274 11.4406H14.5031C14.6289 11.4406 14.7383 11.3968 14.8313 11.3148C14.9297 11.2164 14.9735 11.096 14.968 10.9593C14.9625 10.8554 14.9188 10.7625 14.8586 10.6804Z" fill="#3268DA"/>
<path d="M12.0696 8.82661C12.0258 8.7227 11.9602 8.64067 11.8782 8.57505C11.7797 8.49849 11.6649 8.46021 11.5336 8.46021H11.479C11.3532 8.46021 11.2329 8.50396 11.1344 8.57505C11.0524 8.64067 10.9922 8.72817 10.943 8.82661L9.57583 12.0696C9.54302 12.1407 9.52661 12.2063 9.52661 12.2665C9.52661 12.3977 9.57583 12.5125 9.65786 12.6055C9.81645 12.7696 10.079 12.7969 10.2813 12.6711C10.3579 12.6165 10.418 12.5454 10.4672 12.4524L10.7571 11.7633H12.261L12.5508 12.4633C12.5946 12.5563 12.6547 12.6219 12.7313 12.6766C12.8079 12.7313 12.9063 12.7532 13.0047 12.7532C13.1415 12.7532 13.2618 12.704 13.3547 12.611C13.4477 12.518 13.486 12.3977 13.486 12.2719C13.486 12.2118 13.475 12.1461 13.4368 12.0641L12.0696 8.82661ZM11.1508 10.8336L11.5118 9.96411L11.8727 10.8336H11.1508Z" fill="#3268DA"/>
<path d="M18.0469 11.7852H16.4555L18.3531 9.44458C18.3969 9.39536 18.4297 9.33521 18.457 9.27505C18.4898 9.20942 18.5008 9.13833 18.5008 9.06724C18.5008 8.91411 18.4461 8.77739 18.3477 8.66255C18.2438 8.5477 18.1016 8.48755 17.932 8.48755H15.6023C15.4711 8.48755 15.3563 8.53677 15.2633 8.62974C15.1703 8.72271 15.132 8.83755 15.132 8.9688C15.132 9.09458 15.1813 9.21489 15.2688 9.30786C15.3617 9.40083 15.4766 9.44458 15.6078 9.44458H17.1664L15.2414 11.8235C15.1648 11.9219 15.1211 12.0422 15.1211 12.1735C15.1211 12.3266 15.1758 12.4579 15.2852 12.5672C15.3945 12.6766 15.5258 12.7313 15.6789 12.7313H18.0687C18.1945 12.7313 18.3094 12.6821 18.4023 12.6C18.4953 12.5071 18.5445 12.3922 18.5445 12.261C18.5445 12.1352 18.4953 12.0149 18.4078 11.9219C18.293 11.8344 18.1781 11.7852 18.0469 11.7852Z" fill="#3268DA"/>
</svg>
