<svg width="32" height="32" viewBox="0 0 32 32" fill="none" xmlns="http://www.w3.org/2000/svg">
<path d="M9.375 6.625C9.375 6.10625 8.95625 5.6875 8.4375 5.6875C7.91875 5.6875 7.5 6.10625 7.5 6.625V7.5625H9.375V6.625Z" fill="#3366CC"/>
<path d="M0.9375 32H23.4375C23.9562 32 24.375 31.5812 24.375 31.0625V0.9375C24.375 0.41875 23.9562 0 23.4375 0H0.9375C0.41875 0 0 0.41875 0 0.9375V31.0625C0 31.5812 0.41875 32 0.9375 32ZM19.6875 26.3125H14.0625C13.5437 26.3125 13.125 25.8937 13.125 25.375C13.125 24.8563 13.5437 24.4375 14.0625 24.4375H19.6875C20.2062 24.4375 20.625 24.8563 20.625 25.375C20.625 25.8937 20.2062 26.3125 19.6875 26.3125ZM14.0625 5.6875H15V4.75C15 4.23125 15.4187 3.8125 15.9375 3.8125C16.4562 3.8125 16.875 4.23125 16.875 4.75V5.6875H17.8125C18.3312 5.6875 18.75 6.10625 18.75 6.625C18.75 7.14375 18.3312 7.5625 17.8125 7.5625H16.875V8.5C16.875 9.01875 16.4562 9.4375 15.9375 9.4375C15.4187 9.4375 15 9.01875 15 8.5V7.5625H14.0625C13.5437 7.5625 13.125 7.14375 13.125 6.625C13.125 6.10625 13.5437 5.6875 14.0625 5.6875ZM5.625 6.625C5.625 5.075 6.8875 3.8125 8.4375 3.8125C9.9875 3.8125 11.25 5.075 11.25 6.625V10.375C11.25 10.8938 10.8313 11.3125 10.3125 11.3125C9.79375 11.3125 9.375 10.8938 9.375 10.375V9.4375H7.5V10.375C7.5 10.8938 7.08125 11.3125 6.5625 11.3125C6.04375 11.3125 5.625 10.8938 5.625 10.375V6.625ZM4.6875 13.1875H10.3125C10.8313 13.1875 11.25 13.6062 11.25 14.125C11.25 14.6438 10.8313 15.0625 10.3125 15.0625H4.6875C4.16875 15.0625 3.75 14.6438 3.75 14.125C3.75 13.6062 4.16875 13.1875 4.6875 13.1875ZM4.6875 16.9375H19.6875C20.2062 16.9375 20.625 17.3563 20.625 17.875C20.625 18.3937 20.2062 18.8125 19.6875 18.8125H4.6875C4.16875 18.8125 3.75 18.3937 3.75 17.875C3.75 17.3563 4.16875 16.9375 4.6875 16.9375ZM4.6875 20.6875H19.6875C20.2062 20.6875 20.625 21.1063 20.625 21.625C20.625 22.1437 20.2062 22.5625 19.6875 22.5625H4.6875C4.16875 22.5625 3.75 22.1437 3.75 21.625C3.75 21.1063 4.16875 20.6875 4.6875 20.6875Z" fill="#3366CC"/>
<path d="M31.0625 3.8125H27.3125C26.7937 3.8125 26.375 4.23125 26.375 4.75V7.5625H32V4.75C32 4.23125 31.5813 3.8125 31.0625 3.8125Z" fill="#3366CC"/>
<path d="M26.375 9.4375H32V22.5625H26.375V9.4375Z" fill="#3366CC"/>
<path d="M29.1875 30.0625C29.5937 30.0625 29.95 29.8063 30.075 29.4188L31.7374 24.4375H26.6375L28.2999 29.4188C28.4249 29.8063 28.7812 30.0625 29.1875 30.0625Z" fill="#3366CC"/>
</svg>
