<svg width="22" height="22" viewBox="0 0 22 22" fill="none" xmlns="http://www.w3.org/2000/svg">
<g clip-path="url(#clip0_287_963)">
<path d="M5.25897 7.12329H15.7807C16.2315 7.12329 16.5971 6.75763 16.5971 6.30688C16.5971 5.85614 16.2315 5.49048 15.7807 5.49048H5.25897C4.80823 5.49048 4.44257 5.85614 4.44257 6.30688C4.44257 6.75763 4.80823 7.12329 5.25897 7.12329Z" fill="white"/>
<path d="M12.32 11.3962C12.32 10.9455 11.9544 10.5798 11.5036 10.5798H5.25897C4.80823 10.5798 4.44257 10.9455 4.44257 11.3962C4.44257 11.847 4.80823 12.2126 5.25897 12.2126H11.5036C11.9544 12.2126 12.32 11.847 12.32 11.3962Z" fill="white"/>
<path d="M20.9099 13.9094C20.9975 12.9499 21.0564 11.8319 21.0577 10.5286C21.0551 8.07641 20.8493 6.28074 20.6297 4.96117C20.2456 2.78695 18.2707 0.812109 16.0965 0.427969C14.777 0.208398 12.9813 0.00257812 10.5286 0C8.07641 0.00257812 6.28031 0.208398 4.96074 0.427969C2.78695 0.812109 0.812109 2.78695 0.427969 4.96117C0.208398 6.28074 0.00300781 8.07641 0 10.5286C0.00300781 12.9809 0.208398 14.777 0.427969 16.0965C0.812109 18.2707 2.78695 20.2456 4.96117 20.6297C6.28074 20.8493 8.07641 21.0547 10.5291 21.0577C11.8319 21.0564 12.9499 20.9975 13.909 20.9099C14.7615 21.5918 15.8426 22 17.0191 22C19.7699 22 22.0004 19.7699 22.0004 17.0191C22.0004 15.8426 21.5922 14.7615 20.9103 13.9094H20.9099ZM10.5291 19.4249C8.59461 19.4227 6.86383 19.2904 5.23832 19.0205C4.51602 18.8912 3.78426 18.486 3.17797 17.8797C2.57168 17.2734 2.16691 16.5421 2.03715 15.8194C1.7673 14.1956 1.63539 12.4648 1.63281 10.5286C1.63496 8.59332 1.7673 6.86254 2.03715 5.23789C2.16648 4.51559 2.57168 3.78426 3.17797 3.17797C3.78426 2.57168 4.51559 2.16691 5.23832 2.03715C6.86297 1.7673 8.59375 1.63539 10.5291 1.63281C12.4635 1.63496 14.1943 1.7673 15.8198 2.03715C16.5421 2.16648 17.2734 2.57168 17.8802 3.17797C18.4864 3.78426 18.8912 4.51559 19.021 5.23832C19.2908 6.86383 19.4227 8.59418 19.4253 10.5291C19.4245 11.2552 19.4047 11.9518 19.3669 12.6255C18.6673 12.2508 17.8681 12.0386 17.0191 12.0386C14.2682 12.0386 12.0377 14.2686 12.0377 17.0195C12.0377 17.8686 12.2504 18.6673 12.6246 19.3669C11.9509 19.4047 11.2544 19.4245 10.5286 19.4249H10.5291ZM17.0191 20.3672C15.1727 20.3672 13.6705 18.8654 13.6705 17.0191C13.6705 15.1727 15.1727 13.6709 17.0191 13.6709C18.8654 13.6709 20.3676 15.1727 20.3676 17.0191C20.3676 18.8654 18.8654 20.3672 17.0191 20.3672Z" fill="white"/>
<path d="M17.4573 17.9713C17.3533 17.9541 17.212 17.9377 17.0191 17.9377C16.8261 17.9377 16.6848 17.9541 16.5808 17.9713C16.4098 18.0013 16.2542 18.1569 16.2237 18.3283C16.2065 18.4323 16.1902 18.5737 16.1902 18.7666C16.1902 18.9595 16.2065 19.1009 16.2237 19.2049C16.2538 19.3759 16.4093 19.5315 16.5808 19.562C16.6848 19.5792 16.8261 19.5955 17.0191 19.5955C17.212 19.5955 17.3533 19.5792 17.4573 19.562C17.6283 19.5319 17.7839 19.3763 17.8144 19.2049C17.8316 19.1009 17.8479 18.9595 17.8479 18.7666C17.8479 18.5737 17.8316 18.4323 17.8144 18.3283C17.7843 18.1573 17.6288 18.0018 17.4573 17.9713Z" fill="white"/>
<path d="M17.0186 17.4295C17.4694 17.4295 17.835 17.0638 17.835 16.6131V15.251C17.835 14.8002 17.4694 14.4346 17.0186 14.4346C16.5679 14.4346 16.2022 14.8002 16.2022 15.251V16.6131C16.2022 17.0638 16.5679 17.4295 17.0186 17.4295Z" fill="white"/>
</g>
<defs>
<clipPath id="clip0_287_963">
<rect width="22" height="22" fill="white"/>
</clipPath>
</defs>
</svg>
