<svg width="37" height="31" viewBox="0 0 37 31" fill="none" xmlns="http://www.w3.org/2000/svg">
<path d="M33.1048 2.97119H32.1174V4.95471C32.1174 6.35789 30.974 7.50123 29.5622 7.50123H28.4621C27.059 7.50123 25.9156 6.35789 25.9156 4.95471V2.97119H10.1601V4.95471C10.1601 6.35789 9.01677 7.50123 7.60492 7.50123H6.51356C5.10171 7.50123 3.95837 6.35789 3.95837 4.95471V2.97119H3.30009C2.27802 2.97119 1.36854 3.43892 0.76223 4.17516C0.632305 4.33973 0.511042 4.5043 0.407102 4.69486V4.70352C0.155915 5.17125 0.00866699 5.69961 0.00866699 6.27994V9.53671H36.3875V6.27994C36.3962 4.45233 34.9151 2.97119 33.1048 2.97119Z" fill="#3366CC"/>
<path d="M0 27.7C0 29.5189 1.47248 31 3.30008 31H33.0961C34.9151 31 36.3962 29.5276 36.3962 27.7V11.1389H0V27.7ZM27.5353 15.3485C27.5353 14.5256 28.2023 13.8587 29.0251 13.8587H31.1386C31.9614 13.8587 32.6284 14.5256 32.6284 15.3485V17.4619C32.6284 18.2848 31.9614 18.9517 31.1386 18.9517H29.0251C28.2023 18.9517 27.5353 18.2848 27.5353 17.4619V15.3485ZM27.5353 23.4817C27.5353 22.6589 28.2023 21.9919 29.0251 21.9919H31.1386C31.9614 21.9919 32.6284 22.6589 32.6284 23.4817V25.5952C32.6284 26.418 31.9614 27.085 31.1386 27.085H29.0251C28.2023 27.085 27.5353 26.418 27.5353 25.5952V23.4817ZM19.6013 15.3485C19.6013 14.5256 20.2682 13.8587 21.0911 13.8587H23.2045C24.0274 13.8587 24.6943 14.5256 24.6943 15.3485V17.4619C24.6943 18.2848 24.0274 18.9517 23.2045 18.9517H21.0911C20.2682 18.9517 19.6013 18.2848 19.6013 17.4619V15.3485ZM19.6013 23.4817C19.6013 22.6589 20.2682 21.9919 21.0911 21.9919H23.2045C24.0274 21.9919 24.6943 22.6589 24.6943 23.4817V25.5952C24.6943 26.418 24.0274 27.085 23.2045 27.085H21.0911C20.2682 27.085 19.6013 26.418 19.6013 25.5952V23.4817ZM11.6672 15.3485C11.6672 14.5256 12.3342 13.8587 13.157 13.8587H15.2705C16.0933 13.8587 16.7603 14.5256 16.7603 15.3485V17.4619C16.7603 18.2848 16.0933 18.9517 15.2705 18.9517H13.157C12.3342 18.9517 11.6672 18.2848 11.6672 17.4619V15.3485ZM11.6672 23.4817C11.6672 22.6589 12.3342 21.9919 13.157 21.9919H15.2705C16.0933 21.9919 16.7603 22.6589 16.7603 23.4817V25.5952C16.7603 26.418 16.0933 27.085 15.2705 27.085H13.157C12.3342 27.085 11.6672 26.418 11.6672 25.5952V23.4817ZM3.73317 23.4817C3.73317 22.6589 4.40011 21.9919 5.22297 21.9919H7.33641C8.15926 21.9919 8.82621 22.6589 8.82621 23.4817V25.5952C8.82621 26.418 8.15926 27.085 7.33641 27.085H5.22297C4.40011 27.085 3.73317 26.418 3.73317 25.5952V23.4817Z" fill="#3366CC"/>
<path d="M6.51358 5.88991H7.60495C8.12465 5.88991 8.5404 5.46549 8.5404 4.95446V0.935457C8.5404 0.415759 8.11598 0 7.60495 0H6.51358C5.99388 0 5.57812 0.424421 5.57812 0.935457V4.95446C5.57812 5.47416 5.99388 5.88991 6.51358 5.88991Z" fill="#3366CC"/>
<path d="M28.4709 5.88991H29.5622C30.0819 5.88991 30.4977 5.46549 30.4977 4.95446V0.935457C30.4977 0.415759 30.0733 0 29.5622 0H28.4709C27.9512 0 27.5354 0.424421 27.5354 0.935457V4.95446C27.5354 5.47416 27.9512 5.88991 28.4709 5.88991Z" fill="#3366CC"/>
</svg>
